Normalized EMG Linear Envelopes
nRows=38
nColumns=17

endheader
time	        VM	        VL	        RF	       GRA	        TA	   ADDLONG	   SEMIMEM	      BFLH	        GM	        GL	       TFL	   GLUTMAX	   GLUTMED	      PIRI	    OBTINT	        QF	
1.305	  0.118539	  0.117111	  0.016549	  0.127972	  0.072982	  0.024310	  0.122741	  0.218362	  0.108792	  0.028586	  0.011401	  0.165749	  0.103014	  0.597418	  1.086405	  0.385984	
1.3055	  0.122807	  0.120400	  0.017061	  0.130395	  0.074565	  0.024980	  0.125091	  0.222472	  0.111608	  0.030175	  0.011747	  0.170368	  0.104691	  0.605562	  1.105060	  0.395330	
1.306	  0.127151	  0.123733	  0.017581	  0.132827	  0.076160	  0.025659	  0.127451	  0.226596	  0.114458	  0.031800	  0.012098	  0.175048	  0.106368	  0.613652	  1.123733	  0.404772	
1.3065	  0.131571	  0.127110	  0.018109	  0.135268	  0.077767	  0.026347	  0.129820	  0.230735	  0.117341	  0.033463	  0.012454	  0.179789	  0.108044	  0.621681	  1.142414	  0.414306	
1.307	  0.136067	  0.130530	  0.018645	  0.137717	  0.079384	  0.027043	  0.132197	  0.234886	  0.120255	  0.035163	  0.012816	  0.184588	  0.109719	  0.629644	  1.161094	  0.423932	
1.3075	  0.140639	  0.133993	  0.019188	  0.140172	  0.081012	  0.027748	  0.134580	  0.239046	  0.123201	  0.036901	  0.013182	  0.189447	  0.111392	  0.637536	  1.179762	  0.433646	
1.308	  0.145287	  0.137498	  0.019740	  0.142633	  0.082650	  0.028461	  0.136968	  0.243216	  0.126178	  0.038677	  0.013554	  0.194364	  0.113061	  0.645351	  1.198409	  0.443446	
1.3085	  0.150012	  0.141044	  0.020300	  0.145099	  0.084296	  0.029182	  0.139361	  0.247391	  0.129185	  0.040492	  0.013931	  0.199338	  0.114727	  0.653082	  1.217025	  0.453331	
1.309	  0.154813	  0.144632	  0.020867	  0.147567	  0.085952	  0.029912	  0.141757	  0.251572	  0.132222	  0.042346	  0.014313	  0.204369	  0.116388	  0.660725	  1.235599	  0.463296	
1.3095	  0.159690	  0.148260	  0.021442	  0.150038	  0.087615	  0.030649	  0.144156	  0.255754	  0.135289	  0.044239	  0.014700	  0.209456	  0.118043	  0.668273	  1.254122	  0.473341	
1.31	  0.164642	  0.151929	  0.022026	  0.152510	  0.089286	  0.031395	  0.146555	  0.259937	  0.138384	  0.046171	  0.015092	  0.214597	  0.119693	  0.675720	  1.272583	  0.483461	
1.3105	  0.169671	  0.155636	  0.022617	  0.154981	  0.090964	  0.032148	  0.148954	  0.264118	  0.141507	  0.048143	  0.015489	  0.219792	  0.121336	  0.683060	  1.290970	  0.493653	
1.311	  0.174776	  0.159382	  0.023216	  0.157450	  0.092648	  0.032909	  0.151350	  0.268295	  0.144658	  0.050155	  0.015890	  0.225039	  0.122971	  0.690286	  1.309274	  0.503916	
1.3115	  0.179956	  0.163166	  0.023822	  0.159916	  0.094337	  0.033677	  0.153744	  0.272466	  0.147834	  0.052207	  0.016297	  0.230339	  0.124597	  0.697392	  1.327482	  0.514244	
1.312	  0.185211	  0.166987	  0.024437	  0.162378	  0.096031	  0.034452	  0.156133	  0.276627	  0.151037	  0.054300	  0.016708	  0.235688	  0.126214	  0.704371	  1.345584	  0.524635	
1.3125	  0.190541	  0.170844	  0.025059	  0.164834	  0.097729	  0.035235	  0.158517	  0.280777	  0.154264	  0.056433	  0.017125	  0.241087	  0.127821	  0.711215	  1.363568	  0.535086	
1.313	  0.195946	  0.174736	  0.025688	  0.167283	  0.099430	  0.036024	  0.160893	  0.284914	  0.157515	  0.058608	  0.017545	  0.246533	  0.129417	  0.717919	  1.381422	  0.545592	
1.3135	  0.201424	  0.178662	  0.026326	  0.169723	  0.101133	  0.036820	  0.163260	  0.289034	  0.160790	  0.060823	  0.017971	  0.252026	  0.131001	  0.724474	  1.399135	  0.556149	
1.314	  0.206976	  0.182622	  0.026970	  0.172152	  0.102838	  0.037623	  0.165617	  0.293135	  0.164086	  0.063080	  0.018401	  0.257564	  0.132571	  0.730874	  1.416694	  0.566755	
1.3145	  0.212601	  0.186614	  0.027622	  0.174570	  0.104543	  0.038432	  0.167962	  0.297214	  0.167404	  0.065378	  0.018835	  0.263145	  0.134128	  0.737112	  1.434086	  0.577404	
1.315	  0.218298	  0.190638	  0.028282	  0.176975	  0.106249	  0.039247	  0.170293	  0.301270	  0.170741	  0.067718	  0.019274	  0.268768	  0.135670	  0.743181	  1.451301	  0.588092	
1.3155	  0.224067	  0.194692	  0.028948	  0.179366	  0.107953	  0.040068	  0.172610	  0.305298	  0.174098	  0.070100	  0.019717	  0.274431	  0.137195	  0.749073	  1.468323	  0.598816	
1.316	  0.229906	  0.198775	  0.029622	  0.181740	  0.109655	  0.040894	  0.174910	  0.309297	  0.177472	  0.072523	  0.020165	  0.280133	  0.138704	  0.754784	  1.485139	  0.609570	
1.3165	  0.235817	  0.202886	  0.030303	  0.184097	  0.111354	  0.041726	  0.177191	  0.313264	  0.180864	  0.074989	  0.020616	  0.285871	  0.140196	  0.760306	  1.501737	  0.620350	
1.317	  0.241796	  0.207024	  0.030991	  0.186435	  0.113049	  0.042563	  0.179453	  0.317197	  0.184270	  0.077496	  0.021072	  0.291645	  0.141669	  0.765634	  1.518101	  0.631151	
1.3175	  0.247845	  0.211187	  0.031686	  0.188752	  0.114739	  0.043405	  0.181693	  0.321091	  0.187691	  0.080046	  0.021532	  0.297452	  0.143123	  0.770763	  1.534216	  0.641969	
1.318	  0.253961	  0.215375	  0.032388	  0.191048	  0.116423	  0.044251	  0.183910	  0.324946	  0.191124	  0.082637	  0.021995	  0.303289	  0.144558	  0.775688	  1.550069	  0.652799	
1.3185	  0.260145	  0.219586	  0.033098	  0.193320	  0.118099	  0.045102	  0.186101	  0.328759	  0.194570	  0.085271	  0.022463	  0.309156	  0.145973	  0.780405	  1.565644	  0.663635	
1.319	  0.266394	  0.223819	  0.033814	  0.195568	  0.119767	  0.045957	  0.188266	  0.332526	  0.198025	  0.087947	  0.022934	  0.315050	  0.147368	  0.784912	  1.580927	  0.674473	
1.3195	  0.272709	  0.228072	  0.034537	  0.197790	  0.121426	  0.046816	  0.190403	  0.336246	  0.201490	  0.090666	  0.023409	  0.320969	  0.148742	  0.789205	  1.595902	  0.685307	
1.32	  0.279089	  0.232344	  0.035267	  0.199984	  0.123074	  0.047679	  0.192509	  0.339916	  0.204962	  0.093426	  0.023887	  0.326910	  0.150097	  0.793284	  1.610555	  0.696132	
1.3205	  0.285532	  0.236634	  0.036004	  0.202151	  0.124711	  0.048545	  0.194584	  0.343534	  0.208441	  0.096229	  0.024369	  0.332871	  0.151432	  0.797148	  1.624873	  0.706944	
1.321	  0.292037	  0.240940	  0.036748	  0.204287	  0.126335	  0.049414	  0.196625	  0.347097	  0.211925	  0.099074	  0.024855	  0.338851	  0.152748	  0.800797	  1.638840	  0.717735	
1.3215	  0.298604	  0.245260	  0.037499	  0.206393	  0.127945	  0.050285	  0.198633	  0.350603	  0.215414	  0.101961	  0.025344	  0.344846	  0.154045	  0.804229	  1.652444	  0.728502	
1.322	  0.305231	  0.249594	  0.038257	  0.208468	  0.129539	  0.051160	  0.200605	  0.354050	  0.218906	  0.104890	  0.025836	  0.350854	  0.155325	  0.807448	  1.665673	  0.739238	
1.3225	  0.311919	  0.253940	  0.039023	  0.210510	  0.131118	  0.052036	  0.202541	  0.357436	  0.222401	  0.107861	  0.026331	  0.356873	  0.156587	  0.810454	  1.678515	  0.749937	
1.323	  0.318665	  0.258295	  0.039796	  0.212519	  0.132679	  0.052914	  0.204440	  0.360758	  0.225897	  0.110875	  0.026830	  0.362900	  0.157833	  0.813250	  1.690959	  0.760594	
1.3235	  0.325469	  0.262660	  0.040576	  0.214494	  0.134221	  0.053794	  0.206301	  0.364016	  0.229395	  0.113931	  0.027332	  0.368932	  0.159064	  0.815840	  1.702997	  0.771203	
